<svg width="194" height="136" viewBox="0 0 194 136" fill="none" xmlns="http://www.w3.org/2000/svg">
<path d="M193.863 42.4718C193.863 60.2436 190.639 77.1119 184.192 93.0764C177.746 109.041 167.769 123.349 154.261 136L130.777 132.385L137.684 79.5216C128.167 79.5216 120.646 77.1119 115.12 72.2924C109.902 67.4729 107.292 57.5327 107.292 42.4718C107.292 29.5194 108.52 20.1816 110.976 14.4585C113.739 8.43412 118.497 4.51829 125.251 2.71098C132.312 0.903661 142.135 0 154.722 0C165.466 0 173.601 0.903661 179.127 2.71098C184.653 4.51829 188.49 8.43412 190.639 14.4585C192.788 20.1816 193.863 29.5194 193.863 42.4718Z" fill="#F58236"/>
<path d="M86.5704 42.4718C86.5704 60.2436 83.347 77.1119 76.9003 93.0764C70.4536 109.041 60.4765 123.349 46.969 136L23.4845 132.385L30.3917 79.5216C20.8751 79.5216 13.3539 77.1119 7.82818 72.2924C2.60939 67.4729 0 57.5327 0 42.4718C0 29.5194 1.22795 20.1816 3.68385 14.4585C6.44673 8.43412 11.205 4.51829 17.9588 2.71098C25.0195 0.903661 34.8431 0 47.4295 0C58.1741 0 66.3093 0.903661 71.835 2.71098C77.3608 4.51829 81.1981 8.43412 83.347 14.4585C85.496 20.1816 86.5704 29.5194 86.5704 42.4718Z" fill="#F58236"/>
</svg>
