<svg width="268" height="159" viewBox="0 0 268 159" fill="none" xmlns="http://www.w3.org/2000/svg">
<path d="M15.0451 74.5759V20.6759H25.8251V65.3884H36.9114V74.5759H15.0451ZM39.7583 74.5759L44.9645 20.6759H63.2476L68.362 74.5759H58.1639L57.3983 65.8784H50.9058L50.232 74.5759H39.7583ZM51.6714 57.2728H56.5714L54.2133 29.8634H53.7233L51.6714 57.2728ZM72.9239 74.5759V20.6759H84.0102L88.9714 46.4928V20.6759H99.3839V74.5759H88.8489L83.4589 47.6259V74.5759H72.9239ZM116.533 75.0659C108.836 75.0659 104.987 69.5534 104.987 58.5284V35.2841C104.987 25.2186 109.397 20.1859 118.217 20.1859C121.851 20.1859 124.638 20.9209 126.578 22.3909C128.517 23.8405 129.855 25.9638 130.59 28.7609C131.325 31.558 131.692 34.9676 131.692 38.9897H121.157V34.2122C121.157 33.0484 120.994 32.0786 120.667 31.3028C120.361 30.5066 119.707 30.1084 118.707 30.1084C117.462 30.1084 116.635 30.527 116.226 31.3641C115.839 32.2011 115.645 33.1199 115.645 34.1203V60.2434C115.645 61.693 115.828 62.8772 116.196 63.7959C116.584 64.6943 117.329 65.1434 118.431 65.1434C119.575 65.1434 120.33 64.6943 120.698 63.7959C121.086 62.8772 121.28 61.6726 121.28 60.1822V52.4953H118.401V43.1853H131.57V74.5759H127.251L125.414 70.0434C123.536 73.3918 120.575 75.0659 116.533 75.0659ZM149.576 75.0659C145.084 75.0659 141.777 73.8103 139.653 71.2991C137.53 68.7674 136.468 65.0516 136.468 60.1516V20.6759H146.942V59.7228C146.942 60.6211 146.993 61.4888 147.095 62.3259C147.197 63.1426 147.432 63.8163 147.8 64.3472C148.167 64.878 148.759 65.1434 149.576 65.1434C150.413 65.1434 151.015 64.8882 151.383 64.3778C151.75 63.847 151.975 63.163 152.056 62.3259C152.159 61.4888 152.21 60.6211 152.21 59.7228V20.6759H162.683V60.1516C162.683 65.0516 161.622 68.7674 159.498 71.2991C157.375 73.8103 154.068 75.0659 149.576 75.0659ZM166.602 74.5759L171.808 20.6759H190.092L195.206 74.5759H185.008L184.242 65.8784H177.75L177.076 74.5759H166.602ZM178.515 57.2728H183.415L181.057 29.8634H180.567L178.515 57.2728ZM210.885 75.0659C203.188 75.0659 199.339 69.5534 199.339 58.5284V35.2841C199.339 25.2186 203.749 20.1859 212.569 20.1859C216.203 20.1859 218.99 20.9209 220.93 22.3909C222.869 23.8405 224.207 25.9638 224.942 28.7609C225.677 31.558 226.044 34.9676 226.044 38.9897H215.509V34.2122C215.509 33.0484 215.346 32.0786 215.019 31.3028C214.713 30.5066 214.059 30.1084 213.059 30.1084C211.814 30.1084 210.987 30.527 210.578 31.3641C210.19 32.2011 209.997 33.1199 209.997 34.1203V60.2434C209.997 61.693 210.18 62.8772 210.548 63.7959C210.936 64.6943 211.681 65.1434 212.783 65.1434C213.927 65.1434 214.682 64.6943 215.05 63.7959C215.438 62.8772 215.632 61.6726 215.632 60.1822V52.4953H212.753V43.1853H225.922V74.5759H221.603L219.766 70.0434C217.888 73.3918 214.927 75.0659 210.885 75.0659ZM231.463 74.5759V20.6759H253.023V31.0884H242.427V41.5928H252.595V51.7297H242.427V64.0716H253.728V74.5759H231.463Z" fill="white"/>
<path fill-rule="evenodd" clip-rule="evenodd" d="M248.403 103.658C248.461 101.402 247.916 99.551 246.768 98.1054L249.125 98.4684L250.08 97.5746C252.129 95.6553 253.683 93.4438 254.692 90.9442C254.939 90.3313 255.156 89.71 255.341 89.0808C255.369 89.109 255.399 89.137 255.429 89.1646L255.457 89.1905L255.486 89.2156C256.025 89.6858 256.618 90.0384 257.244 90.2924L256.317 97.3919L259.056 97.8135L259.056 158.272L8.17633 158.272L8.17632 98.0955C8.77977 98.0257 9.34024 97.9281 9.85014 97.7976L9.86433 97.794L9.87844 97.7902C11.085 97.4673 12.1138 96.8139 12.8574 95.8517C13.4565 96.7173 14.3094 97.3884 15.4101 97.7484C16.5497 98.1211 17.9657 98.24 19.4724 98.24C20.3237 98.24 21.1294 98.2113 21.8765 98.1449C21.8008 98.2485 21.728 98.3537 21.6583 98.4605C20.6293 100.035 20.1358 101.841 20.1778 103.878L21.0598 137.016C21.1228 138.843 21.6163 140.513 22.5403 142.025C23.4643 143.537 24.9238 144.744 26.9188 145.647C28.9348 146.55 31.5598 147.002 34.7938 147.002C38.0488 147.002 40.6738 146.561 42.6688 145.679C44.6638 144.776 46.1233 143.579 47.0473 142.088C47.9923 140.576 48.4858 138.906 48.5278 137.079L49.0948 117.077C49.1158 116.216 49.0108 115.586 48.7798 115.187C48.5698 114.767 48.1078 114.494 47.3938 114.368C46.6798 114.242 45.5878 114.179 44.1178 114.179C41.9338 114.179 40.4743 114.347 39.7393 114.683C39.0253 114.998 38.6788 115.796 38.6998 117.077L39.2668 137.3C39.3088 139.064 38.9833 140.271 38.2903 140.922C37.5973 141.552 36.4318 141.867 34.7938 141.867C33.1558 141.867 31.9903 141.552 31.2973 140.922C30.6043 140.271 30.2788 139.064 30.3208 137.3L31.2658 103.941C31.3078 102.093 31.6963 100.949 32.4313 100.508C33.1873 100.046 34.3423 99.815 35.8963 99.815L46.2283 99.815C46.9633 99.815 47.4568 99.647 47.7088 99.311C47.9818 98.975 48.1183 98.177 48.1183 96.917C48.1183 95.888 48.0763 95.1215 47.9923 94.6175C47.9293 94.1135 47.7088 93.788 47.3308 93.641C46.9528 93.473 46.2808 93.389 45.3148 93.389L35.9278 93.389C32.7123 93.389 30.0244 93.7086 27.8642 94.3477C28.3058 93.1069 28.4312 91.548 28.4312 89.9367C28.4312 88.8071 28.3356 87.7322 28.0843 86.7752C27.8368 85.832 27.3863 84.8084 26.5319 84.0194L26.5038 83.9935L26.475 83.9683C25.9359 83.4981 25.343 83.1455 24.7164 82.8916L24.8182 82.112L239.368 82.112C239.351 82.4851 239.344 82.8647 239.344 83.2472C239.344 84.3768 239.44 85.4518 239.691 86.4088C239.939 87.352 240.389 88.3755 241.244 89.1646L241.272 89.1905L241.3 89.2156C241.84 89.6858 242.433 90.0384 243.059 90.2924L242.449 94.9619C241.999 94.7758 241.527 94.6085 241.032 94.46C238.743 93.746 236.16 93.389 233.283 93.389L226.101 93.389L225.313 93.389C223.654 93.389 222.405 93.4625 221.565 93.6095C220.746 93.7355 220.2 93.9875 219.927 94.3655C219.675 94.7225 219.559 95.2685 219.58 96.0035L220.935 144.482C220.977 145.448 221.229 146.046 221.691 146.277C222.174 146.508 223.381 146.624 225.313 146.624L225.88 146.624L233.535 146.624C237.042 146.624 239.803 146.13 241.819 145.143C243.835 144.135 245.274 142.865 246.135 141.332C247.017 139.799 247.479 138.234 247.521 136.638L247.71 131.063C247.794 128.816 247.237 126.936 246.04 125.424C244.843 123.912 243.216 122.747 241.158 121.928C243.741 120.962 245.547 119.576 246.576 117.77C247.626 115.943 248.172 114.147 248.214 112.383L248.403 103.658ZM56.5931 146.624C54.9551 146.624 53.8211 146.498 53.1911 146.246C52.5611 145.973 52.3406 145.28 52.5296 144.167L60.8771 96.0665C61.0031 95.2685 61.2446 94.67 61.6016 94.271C61.9586 93.851 62.6726 93.5675 63.7436 93.4205C64.8356 93.2735 66.5261 93.2 68.8151 93.2C71.1041 93.2 72.7841 93.2735 73.8551 93.4205C74.9261 93.5675 75.6401 93.851 75.9971 94.271C76.3541 94.67 76.5956 95.2685 76.7216 96.0665L85.0691 144.167C85.2581 145.28 85.0376 145.973 84.4076 146.246C83.7986 146.498 82.6646 146.624 81.0056 146.624C79.6826 146.624 78.6851 146.582 78.0131 146.498C77.3621 146.393 76.9106 146.162 76.6586 145.805C76.4066 145.448 76.2176 144.902 76.0916 144.167L74.8001 136.638L62.7986 136.638L61.5071 144.167C61.3811 144.902 61.1921 145.448 60.9401 145.805C60.6881 146.162 60.2366 146.393 59.5856 146.498C58.9346 146.582 57.9371 146.624 56.5931 146.624ZM68.6576 102.713L63.8381 130.653L73.7606 130.653L68.9411 102.713L68.6576 102.713ZM94.4573 146.624C92.5253 146.624 91.3178 146.508 90.8348 146.277C90.3728 146.046 90.1208 145.448 90.0788 144.482L88.7243 96.0035C88.7033 95.2685 88.8188 94.7225 89.0708 94.3655C89.3438 93.9875 89.8898 93.7355 90.7088 93.6095C91.5488 93.4625 92.7983 93.389 94.4573 93.389L95.2448 93.389L102.427 93.389C105.304 93.389 107.887 93.746 110.176 94.46C112.486 95.153 114.302 96.2555 115.625 97.7675C116.969 99.2585 117.61 101.222 117.547 103.658L117.358 112.383C117.316 114.147 116.77 115.943 115.72 117.77C114.691 119.576 112.885 120.962 110.302 121.928C112.36 122.747 113.987 123.912 115.184 125.424C116.381 126.936 116.938 128.816 116.854 131.063L116.665 136.638C116.623 138.234 116.161 139.799 115.279 141.332C114.418 142.865 112.979 144.135 110.963 145.143C108.947 146.13 106.186 146.624 102.679 146.624L95.0243 146.624L94.4573 146.624ZM101.419 98.8385L100.096 98.8385L99.5288 119.156L101.765 119.156C103.781 119.156 105.157 118.83 105.892 118.179C106.627 117.507 106.963 116.289 106.9 114.525L106.459 102.65C106.396 101.033 106.039 99.9935 105.388 99.5315C104.758 99.0695 103.435 98.8385 101.419 98.8385ZM101.923 124.668L99.3713 124.668L98.8988 141.489L102.238 141.489C104.275 141.489 105.65 141.153 106.364 140.481C107.099 139.809 107.446 138.591 107.404 136.827L107.215 128.637C107.194 126.999 106.805 125.928 106.049 125.424C105.314 124.92 103.939 124.668 101.923 124.668ZM138.874 147.002C135.493 147.002 132.752 146.55 130.652 145.647C128.552 144.744 127.019 143.537 126.053 142.025C125.087 140.513 124.573 138.843 124.51 137.016L123.628 103.626C123.544 100.476 124.699 97.925 127.093 95.972C129.508 94.019 133.435 93.0425 138.874 93.0425C144.313 93.0425 148.229 94.019 150.623 95.972C153.038 97.925 154.204 100.476 154.12 103.626L153.742 118.935C153.721 120.216 153.343 121.025 152.608 121.361C151.873 121.676 150.529 121.833 148.576 121.833C146.602 121.833 145.258 121.676 144.544 121.361C143.851 121.025 143.483 120.216 143.441 118.935L143.032 102.65C142.99 100.802 142.622 99.647 141.929 99.185C141.236 98.702 140.218 98.4605 138.874 98.4605C137.53 98.4605 136.511 98.702 135.818 99.185C135.125 99.647 134.758 100.802 134.716 102.65L133.802 137.3C133.76 139.064 134.128 140.271 134.905 140.922C135.703 141.552 137.026 141.867 138.874 141.867C140.743 141.867 142.066 141.552 142.843 140.922C143.641 140.271 144.008 139.064 143.945 137.3L143.819 133.551C143.777 132.27 144.113 131.472 144.827 131.157C145.562 130.821 146.896 130.653 148.828 130.653C150.739 130.653 151.967 130.821 152.513 131.157C153.08 131.472 153.343 132.27 153.301 133.551L153.206 137.079C153.164 138.906 152.65 140.576 151.663 142.088C150.697 143.579 149.174 144.776 147.095 145.679C145.016 146.561 142.276 147.002 138.874 147.002ZM165.965 146.624C164.033 146.624 162.825 146.508 162.342 146.277C161.88 146.046 161.628 145.448 161.586 144.482L160.232 96.0035C160.211 95.2685 160.326 94.7225 160.578 94.3655C160.851 93.9875 161.397 93.7355 162.216 93.6095C163.056 93.4625 164.306 93.389 165.965 93.389C167.624 93.389 168.863 93.4625 169.682 93.6095C170.522 93.7355 171.068 93.9875 171.32 94.3655C171.593 94.7225 171.719 95.2685 171.698 96.0035L170.438 140.765L178.628 140.765C179.72 140.765 180.36 140.964 180.549 141.363C180.759 141.762 180.864 142.539 180.864 143.694C180.864 144.828 180.759 145.605 180.549 146.025C180.36 146.424 179.72 146.624 178.628 146.624L165.965 146.624ZM197.561 147.002C194.18 147.002 191.439 146.55 189.339 145.647C187.239 144.744 185.706 143.537 184.74 142.025C183.774 140.513 183.27 138.843 183.228 137.016L182.094 96.0035C182.073 95.2685 182.189 94.7225 182.441 94.3655C182.714 93.9875 183.26 93.7355 184.079 93.6095C184.919 93.4625 186.168 93.389 187.827 93.389C189.486 93.389 190.725 93.4625 191.544 93.6095C192.384 93.7355 192.93 93.9875 193.182 94.3655C193.455 94.7225 193.581 95.2685 193.56 96.0035L192.489 137.3C192.447 139.064 192.815 140.271 193.592 140.922C194.39 141.552 195.713 141.867 197.561 141.867C199.43 141.867 200.753 141.552 201.53 140.922C202.307 140.271 202.674 139.064 202.632 137.3L201.53 96.0035C201.509 95.2685 201.624 94.7225 201.876 94.3655C202.149 93.9875 202.695 93.7355 203.514 93.6095C204.354 93.4625 205.604 93.389 207.263 93.389C208.922 93.389 210.161 93.4625 210.98 93.6095C211.82 93.7355 212.366 93.9875 212.618 94.3655C212.891 94.7225 213.017 95.2685 212.996 96.0035L211.893 137.016C211.851 138.843 211.337 140.513 210.35 142.025C209.384 143.537 207.861 144.744 205.782 145.647C203.703 146.55 200.963 147.002 197.561 147.002ZM232.275 98.8385L230.952 98.8385L230.385 119.156L232.621 119.156C234.637 119.156 236.013 118.83 236.748 118.179C237.483 117.507 237.819 116.289 237.756 114.525L237.315 102.65C237.252 101.033 236.895 99.9935 236.244 99.5315C235.614 99.0695 234.291 98.8385 232.275 98.8385ZM232.779 124.668L230.227 124.668L229.755 141.489L233.094 141.489C235.131 141.489 236.506 141.153 237.22 140.481C237.955 139.809 238.302 138.591 238.26 136.827L238.071 128.637C238.05 126.999 237.661 125.928 236.905 125.424C236.17 124.92 234.795 124.668 232.779 124.668Z" fill="white"/>
<path d="M0.112374 89.9366C0.112374 87.587 0.538539 85.3568 1.39087 83.2461C2.2432 81.1354 3.56229 79.2437 5.34813 77.5711L8.45306 78.049L7.53984 85.0382C8.79805 85.0382 9.79244 85.3568 10.523 85.994C11.213 86.6312 11.558 87.9454 11.558 89.9366C11.558 91.6491 11.3956 92.8836 11.0709 93.6403C10.7057 94.4368 10.0765 94.9545 9.18363 95.1935C8.25012 95.4324 6.95133 95.5519 5.28725 95.5519C3.8667 95.5519 2.79113 95.4324 2.06056 95.1935C1.32999 94.9545 0.82265 94.4368 0.538539 93.6403C0.254428 92.8836 0.112374 91.6491 0.112374 89.9366Z" fill="white"/>
<path d="M14.2976 89.9366C14.2976 87.587 14.7237 85.3568 15.5761 83.2461C16.4284 81.1354 17.7475 79.2437 19.5333 77.5711L22.6382 78.049L21.725 85.0382C22.9832 85.0382 23.9776 85.3568 24.7082 85.994C25.3982 86.6312 25.7432 87.9454 25.7432 89.9366C25.7432 91.6491 25.5808 92.8836 25.2561 93.6403C24.8908 94.4368 24.2617 94.9545 23.3688 95.1935C22.4353 95.4324 21.1365 95.5519 19.4724 95.5519C18.0519 95.5519 16.9763 95.4324 16.2457 95.1935C15.5152 94.9545 15.0078 94.4368 14.7237 93.6403C14.4396 92.8836 14.2976 91.6491 14.2976 89.9366Z" fill="white"/>
<path d="M267.663 83.1864C267.663 85.5361 267.237 87.7663 266.385 89.877C265.532 91.9877 264.213 93.8793 262.427 95.5519L259.322 95.0741L260.236 88.0848C258.977 88.0848 257.983 87.7663 257.253 87.1291C256.563 86.4919 256.218 85.1777 256.218 83.1864C256.218 81.474 256.38 80.2394 256.705 79.4827C257.07 78.6863 257.699 78.1685 258.592 77.9296C259.525 77.6906 260.824 77.5712 262.488 77.5712C263.909 77.5712 264.984 77.6906 265.715 77.9296C266.446 78.1685 266.953 78.6863 267.237 79.4827C267.521 80.2394 267.663 81.474 267.663 83.1864Z" fill="white"/>
<path d="M253.478 83.1864C253.478 85.5361 253.052 87.7663 252.199 89.877C251.347 91.9877 250.028 93.8793 248.242 95.5519L245.137 95.0741L246.05 88.0848C244.792 88.0848 243.798 87.7663 243.067 87.1291C242.377 86.4919 242.032 85.1777 242.032 83.1864C242.032 81.474 242.195 80.2394 242.519 79.4827C242.885 78.6863 243.514 78.1685 244.407 77.9296C245.34 77.6906 246.639 77.5712 248.303 77.5712C249.724 77.5712 250.799 77.6906 251.53 77.9296C252.26 78.1685 252.768 78.6863 253.052 79.4827C253.336 80.2394 253.478 81.474 253.478 83.1864Z" fill="white"/>
</svg>
