<svg width="107" height="104" viewBox="0 0 107 104" fill="none" xmlns="http://www.w3.org/2000/svg">
<path d="M34.9495 35.1065C33.8658 35.1538 32.8687 34.9875 31.958 34.6076C31.0474 34.2277 30.3101 33.6395 29.7462 32.8431C29.1909 32.0371 28.8871 31.0331 28.8346 29.8311L28.5716 23.8076L33.3249 23.6L33.5754 29.3367C33.5937 29.7556 33.6903 30.089 33.8654 30.3368C34.0495 30.5842 34.3283 30.6997 34.7016 30.6834C35.421 30.652 35.7614 30.1947 35.7228 29.3114L34.9147 10.8037L39.7636 10.5919L40.5508 28.6216C40.6065 29.8965 40.4044 31.0138 39.9445 31.9736C39.4842 32.9242 38.8236 33.6738 37.9626 34.2223C37.1012 34.7617 36.0968 35.0564 34.9495 35.1065ZM48.2395 34.5263C46.2362 34.6137 44.7366 34.1181 43.7407 33.0394C42.7444 31.9517 42.1985 30.3151 42.1031 28.1296L41.4537 13.2551L46.125 13.0512L46.7721 27.8711C46.7895 28.2717 46.8292 28.6577 46.891 29.0291C46.9525 29.3913 47.0703 29.6872 47.2446 29.9168C47.4188 30.1464 47.688 30.2533 48.0523 30.2374C48.4256 30.2211 48.6893 30.0955 48.8432 29.8607C48.9968 29.6168 49.0836 29.3074 49.1038 28.9325C49.133 28.5571 49.1389 28.1691 49.1214 27.7685L48.4743 12.9486L53.1457 12.7447L53.7951 27.6192C53.8905 29.8046 53.4894 31.4825 52.5916 32.653C51.6935 33.8144 50.2428 34.4388 48.2395 34.5263ZM61.6389 33.9412C59.4443 34.0371 57.8361 33.5599 56.814 32.5097C55.8011 31.4591 55.2425 29.741 55.1384 27.3552L55.1044 26.5767L59.8577 26.3691L59.9203 27.8033C59.9445 28.3588 60.0456 28.7923 60.2234 29.1038C60.4099 29.4059 60.7126 29.5478 61.1315 29.5295C61.5686 29.5104 61.8641 29.3835 62.0181 29.1487C62.1807 28.9043 62.2523 28.5591 62.2329 28.1129C62.207 27.521 61.9848 27.0289 61.5663 26.6367C61.1568 26.244 60.4815 25.717 59.5403 25.0556L57.3938 23.5345C56.4807 22.8901 55.8239 22.1615 55.4235 21.3488C55.0231 20.5361 54.7971 19.5378 54.7454 18.354C54.6647 16.5055 55.0752 15.0416 55.9769 13.9622C56.8876 12.8823 58.2445 12.3031 60.0475 12.2244C62.2511 12.1281 63.8378 12.6336 64.8076 13.7408C65.7865 14.8476 66.3245 16.5119 66.4215 18.7338L61.5453 18.9467L61.494 17.772C61.4598 16.9889 61.0785 16.6133 60.35 16.6451C59.9858 16.661 59.7219 16.782 59.5584 17.0081C59.3946 17.225 59.32 17.502 59.3347 17.8389C59.3494 18.1758 59.4407 18.4912 59.6086 18.7849C59.7853 19.0691 60.1753 19.4353 60.7788 19.8833L63.6499 22.016C64.6964 22.7914 65.4989 23.6185 66.0573 24.4973C66.6157 25.3762 66.9263 26.5349 66.9891 27.9737C67.0329 28.9753 66.8917 29.9212 66.5656 30.8112C66.2487 31.7009 65.6921 32.4323 64.8961 33.0053C64.0996 33.5692 63.0139 33.8812 61.6389 33.9412ZM70.9037 33.3178L70.1749 16.6266L67.3202 16.7513L67.1187 12.1346L77.636 11.6754L77.8376 16.2921L74.9829 16.4167L75.7116 33.1079L70.9037 33.3178Z" fill="#F2F1EF"/>
<path d="M5.712 68.2136V35.6696H23.3952V68.2136H5.712ZM7.1232 62.0792H21.5808L22.1568 56.6072L18.8736 56.3192L18.2976 58.796H12.9984V54.3032H20.8896V51.0488H12.9984V46.6424H18.1248L18.7008 49.1192L21.984 48.8312L21.408 43.3592H7.1232V46.6424H9.1392V58.796H7.1232V62.0792ZM22.812 68.2136V35.6696H40.4664V68.2136H22.812ZM32.6616 62.0792H39.8328V59.2856H38.1048V53.324C38.1048 51.788 37.6536 50.6552 36.7512 49.9256C35.8488 49.196 34.7832 48.8312 33.5544 48.8312C31.6344 48.8312 30.2424 49.58 29.3784 51.0776V49.0904H23.7912V51.9128H25.6632V59.2856H23.9352V62.0792H31.1064V59.2856H29.3784V54.62C29.3976 53.7368 29.6472 53.0264 30.1272 52.4888C30.6072 51.932 31.2888 51.6536 32.172 51.6536C32.9016 51.6536 33.4488 51.8936 33.8136 52.3736C34.1976 52.8536 34.3896 53.6504 34.3896 54.764V59.2856H32.6616V62.0792ZM39.8839 68.2136V35.6696H56.8183V68.2136H47.6023C49.9255 68.1368 51.6439 67.4456 52.7575 66.14C53.8711 64.8344 54.4279 63.1736 54.4279 61.1576V51.9128H56.1559V49.0904H50.7127V51.1064C50.3479 50.4344 49.8295 49.8872 49.1575 49.4648C48.4855 49.0424 47.6407 48.8312 46.6231 48.8312C44.7991 48.8312 43.3687 49.5128 42.3319 50.876C41.2951 52.2392 40.7767 53.8904 40.7767 55.8296C40.7767 57.884 41.3431 59.4392 42.4759 60.4952C43.6087 61.5512 44.9335 62.0792 46.4503 62.0792C47.6023 62.0792 48.5143 61.8488 49.1863 61.388C49.8583 60.9272 50.3671 60.3704 50.7127 59.7176V61.1576C50.7127 62.4632 50.3863 63.452 49.7335 64.124C49.0999 64.796 48.2839 65.132 47.2855 65.132C45.6727 65.132 44.4343 64.3256 43.5703 62.7128L40.7191 64.3256C41.2375 65.7464 42.0631 66.7352 43.1959 67.292C44.3479 67.868 45.5671 68.1752 46.8535 68.2136H39.8839ZM50.7127 55.196V55.5128C50.7127 56.4728 50.4343 57.2984 49.8775 57.9896C49.3207 58.6616 48.5335 58.9976 47.5159 58.9976C46.7287 58.9976 46.0759 58.748 45.5575 58.2488C45.0391 57.7304 44.7799 56.8472 44.7799 55.5992C44.7799 54.2744 45.0679 53.3336 45.6439 52.7768C46.2199 52.2008 46.9207 51.9128 47.7463 51.9128C48.5911 51.9128 49.2919 52.1912 49.8487 52.748C50.4247 53.3048 50.7127 54.1208 50.7127 55.196ZM56.2526 68.2136V35.6696H65.0078V68.2136H56.2526ZM57.059 62.0792H64.2302V59.2856H62.5022V42.2648H56.915V45.0872H58.787V59.2856H57.059V62.0792ZM64.3808 68.2136V35.6696H73.568V68.2136H64.3808ZM67.1744 42.9272V46.7864H70.8896V42.9272H67.1744ZM65.5904 62.0792H72.7616V59.2856H71.0336V49.0904H65.4464V51.9128H67.3184V59.2856H65.5904V62.0792ZM72.9294 68.2136V35.6696H86.7246V68.2136H72.9294ZM85.7454 58.1048C85.7454 56.8568 85.3614 55.9736 84.5934 55.4552C83.8446 54.9176 82.9614 54.5624 81.9438 54.3896C80.9454 54.2168 80.0622 54.044 79.2942 53.8712C78.5454 53.6792 78.171 53.3048 78.171 52.748C78.171 52.3256 78.3342 52.0184 78.6606 51.8264C79.0062 51.6152 79.419 51.5096 79.899 51.5096C80.6286 51.5096 81.3102 51.6152 81.9438 51.8264L82.1742 53.6408L85.0542 53.324L84.7374 50.012C83.2206 49.2248 81.5982 48.8312 79.8702 48.8312C78.5454 48.8312 77.259 49.1096 76.011 49.6664C74.7822 50.204 74.1678 51.2696 74.1678 52.8632C74.1678 54.1496 74.5614 55.0616 75.3486 55.5992C76.1358 56.1368 77.0478 56.492 78.0846 56.6648C79.1214 56.8376 80.0334 57.0104 80.8206 57.1832C81.6078 57.356 82.0014 57.7208 82.0014 58.2776C82.0014 58.7384 81.7422 59.084 81.2238 59.3144C80.7054 59.5448 80.091 59.66 79.3806 59.66C79.1886 59.66 78.9006 59.6504 78.5166 59.6312C78.1326 59.5928 77.7678 59.516 77.4222 59.4008V57.788L74.5422 57.4712L74.0238 61.1C74.8878 61.5416 75.7902 61.868 76.731 62.0792C77.691 62.2712 78.6414 62.3672 79.5822 62.3672C81.4062 62.3672 82.8846 62.0216 84.0174 61.3304C85.1694 60.62 85.7454 59.5448 85.7454 58.1048ZM86.0933 68.2136V35.6696H103.373V68.2136H86.0933ZM95.5685 62.0792H102.74V59.2856H101.012V53.324C101.012 51.788 100.56 50.6552 99.6581 49.9256C98.7557 49.196 97.6901 48.8312 96.4613 48.8312C94.5413 48.8312 93.1493 49.58 92.2853 51.0776V42.2648H86.8421V45.0872H88.5701V59.2856H86.8421V62.0792H94.0133V59.2856H92.2853V54.476C92.3237 53.6312 92.5733 52.9496 93.0341 52.4312C93.5141 51.9128 94.1765 51.6536 95.0213 51.6536C95.7509 51.6536 96.3077 51.8936 96.6917 52.3736C97.0949 52.8536 97.2965 53.6504 97.2965 54.764V59.2856H95.5685V62.0792Z" fill="#F2F1EF"/>
<path d="M4.4287 32.4591L4.14026 32.4147L3.92727 32.6142C3.07122 33.416 2.43 34.3318 2.01444 35.3609C1.60417 36.3769 1.40003 37.449 1.40003 38.5724C1.40003 39.3439 1.46075 39.9864 1.62683 40.4321C1.80935 40.9401 2.1629 41.3193 2.68324 41.4895C3.10067 41.626 3.65684 41.6792 4.31025 41.6792C5.07266 41.6792 5.7104 41.6254 6.19848 41.5005L6.19849 41.5005L6.2048 41.4988C6.76524 41.3488 7.19547 41.004 7.43763 40.476L7.44071 40.4692L7.44363 40.4624C7.63975 40.0054 7.70968 39.3493 7.70968 38.5724C7.70968 38.098 7.66909 37.6736 7.57451 37.3133C7.48074 36.9561 7.32244 36.6188 7.0547 36.3715L7.04844 36.3657L7.04202 36.3601C6.74141 36.0979 6.38459 35.9345 5.99071 35.8518L6.3185 33.3432L6.39448 32.7616L5.81483 32.6724L4.4287 32.4591Z" fill="#2E2F40" stroke="white" stroke-width="1.2"/>
<path d="M10.7614 32.4591L10.4729 32.4147L10.2599 32.6142C9.40389 33.416 8.76267 34.3318 8.34711 35.3609C7.93684 36.3769 7.7327 37.449 7.7327 38.5724C7.7327 39.3439 7.79342 39.9864 7.9595 40.4321C8.14202 40.9401 8.49557 41.3193 9.01591 41.4895C9.43334 41.626 9.98951 41.6792 10.6429 41.6792C11.4053 41.6792 12.0431 41.6254 12.5312 41.5005L12.5312 41.5005L12.5375 41.4988C13.0979 41.3488 13.5281 41.004 13.7703 40.476L13.7734 40.4692L13.7763 40.4624C13.9724 40.0054 14.0424 39.3493 14.0424 38.5724C14.0424 38.098 14.0018 37.6736 13.9072 37.3133C13.8134 36.9561 13.6551 36.6188 13.3874 36.3715L13.3811 36.3657L13.3747 36.3601C13.0741 36.0979 12.7173 35.9345 12.3234 35.8518L12.6512 33.3432L12.7272 32.7616L12.1475 32.6724L10.7614 32.4591Z" fill="#2E2F40" stroke="white" stroke-width="1.2"/>
<path d="M103.014 41.6994L103.302 41.7438L103.515 41.5443C104.371 40.7425 105.012 39.8266 105.428 38.7975C105.838 37.7816 106.042 36.7095 106.042 35.586C106.042 34.8145 105.982 34.172 105.816 33.7264C105.633 33.2184 105.279 32.8391 104.759 32.669C104.342 32.5324 103.786 32.4792 103.132 32.4792C102.37 32.4792 101.732 32.533 101.244 32.658L101.244 32.6579L101.238 32.6596C100.677 32.8096 100.247 33.1545 100.005 33.6825L100.002 33.6892L99.9988 33.696C99.8026 34.153 99.7327 34.8092 99.7327 35.586C99.7327 36.0604 99.7733 36.4848 99.8679 36.8451C99.9616 37.2023 100.12 37.5397 100.388 37.7869L100.394 37.7927L100.4 37.7983C100.701 38.0605 101.058 38.2239 101.452 38.3066L101.124 40.8153L101.048 41.3968L101.628 41.486L103.014 41.6994Z" fill="#2E2F40" stroke="white" stroke-width="1.2"/>
<path d="M96.681 41.6994L96.9694 41.7438L97.1824 41.5443C98.0385 40.7425 98.6797 39.8266 99.0952 38.7975C99.5055 37.7816 99.7096 36.7095 99.7096 35.586C99.7096 34.8145 99.6489 34.172 99.4829 33.7264C99.3003 33.2184 98.9468 32.8391 98.4264 32.669C98.009 32.5324 97.4528 32.4792 96.7994 32.4792C96.037 32.4792 95.3993 32.533 94.9112 32.658L94.9112 32.6579L94.9049 32.6596C94.3444 32.8096 93.9142 33.1545 93.6721 33.6825L93.669 33.6892L93.6661 33.696C93.4699 34.153 93.4 34.8092 93.4 35.586C93.4 36.0604 93.4406 36.4848 93.5352 36.8451C93.6289 37.2023 93.7872 37.5397 94.055 37.7869L94.0612 37.7927L94.0677 37.7983C94.3683 38.0605 94.7251 38.2239 95.119 38.3066L94.7912 40.8153L94.7152 41.3968L95.2949 41.486L96.681 41.6994Z" fill="#2E2F40" stroke="white" stroke-width="1.2"/>
<path d="M16.0271 94.1749L14.9775 70.1353L21.3289 69.858C22.6584 69.7999 23.723 70.05 24.5228 70.608C25.3318 71.1657 25.9286 71.9836 26.3132 73.0616C26.6978 74.1396 26.9232 75.4344 26.9892 76.946C27.0528 78.4029 26.9671 79.6793 26.7321 80.7753C26.4967 81.8621 26.0277 82.7173 25.3251 83.341C24.6316 83.9643 23.6201 84.305 22.2906 84.363L20.3374 84.4483L20.7531 93.9685L16.0271 94.1749ZM20.149 80.1321L20.4221 80.1202C21.3145 80.0812 21.8499 79.807 22.0284 79.2974C22.2069 78.7878 22.2748 78.0459 22.2323 77.0715C22.1925 76.1609 22.0618 75.4642 21.84 74.9812C21.6269 74.4887 21.1561 74.2584 20.4276 74.2902L19.8949 74.3134L20.149 80.1321ZM29.2489 93.5976L28.3186 72.2898L33.1265 72.0799L33.8779 89.29L38.8224 89.0741L39.0013 93.1718L29.2489 93.5976ZM40.3672 93.1122L39.4369 71.8043L49.0527 71.3845L49.2555 76.0285L44.5295 76.2349L44.6834 79.7588L49.2181 79.5609L49.4155 84.0819L44.8808 84.2799L45.0525 88.2137L50.0926 87.9936L50.2972 92.6786L40.3672 93.1122ZM51.2397 92.6375L52.6313 71.2283L60.7857 70.8722L63.997 92.0805L59.4486 92.2791L58.9651 88.4137L56.0148 88.5425L55.911 92.4335L51.2397 92.6375ZM56.7048 74.8822L56.2433 84.687L58.3468 84.5952L56.9233 74.8726L56.7048 74.8822ZM71.1911 91.9853C68.9966 92.0811 67.3883 91.604 66.3663 90.5538C65.3534 89.5032 64.7948 87.7851 64.6906 85.3993L64.6566 84.6208L69.4099 84.4132L69.4726 85.8474C69.4968 86.4029 69.5978 86.8364 69.7757 87.1479C69.9622 87.45 70.2649 87.5919 70.6838 87.5736C71.1208 87.5545 71.4164 87.4275 71.5703 87.1927C71.733 86.9484 71.8046 86.6032 71.7851 86.157C71.7593 85.5651 71.5371 85.073 71.1185 84.6808C70.7091 84.2881 70.0338 83.7611 69.0926 83.0997L66.9461 81.5786C66.033 80.9342 65.3762 80.2056 64.9758 79.3929C64.5754 78.5802 64.3493 77.5819 64.2976 76.3981C64.2169 74.5496 64.6274 73.0857 65.5291 72.0063C66.4399 70.9264 67.7968 70.3472 69.5998 70.2684C71.8034 70.1722 73.3901 70.6777 74.3599 71.7849C75.3388 72.8917 75.8767 74.556 75.9738 76.7779L71.0975 76.9908L71.0463 75.8161C71.0121 75.033 70.6307 74.6573 69.9023 74.6891C69.538 74.7051 69.2742 74.8261 69.1107 75.0521C68.9468 75.2691 68.8723 75.5461 68.887 75.883C68.9017 76.2199 68.993 76.5353 69.1609 76.829C69.3375 77.1132 69.7276 77.4794 70.331 77.9274L73.2022 80.0601C74.2487 80.8355 75.0512 81.6626 75.6096 82.5414C76.168 83.4202 76.4786 84.579 76.5414 86.0178C76.5851 87.0194 76.444 87.9653 76.1179 88.8553C75.8009 89.745 75.2444 90.4764 74.4483 91.0494C73.6519 91.6133 72.5661 91.9253 71.1911 91.9853ZM78.3935 91.4519L77.4632 70.1441L87.079 69.7242L87.2818 74.3683L82.5558 74.5746L82.7097 78.0986L87.2444 77.9006L87.4418 82.4217L82.907 82.6197L83.0788 86.5534L88.1189 86.3334L88.3235 91.0184L78.3935 91.4519ZM90.2779 84.378L88.6771 69.6545L93.567 69.441L93.2555 84.248L90.2779 84.378ZM89.6068 90.9486L89.4291 86.8783L94.319 86.6648L94.4967 90.7351L89.6068 90.9486Z" fill="#F2F1EF"/>
</svg>
