<svg width="180" height="200" viewBox="0 0 180 200" fill="none" xmlns="http://www.w3.org/2000/svg">
<mask id="path-1-inside-1_2006_80" fill="white">
<path fill-rule="evenodd" clip-rule="evenodd" d="M45 0C20.1472 0 0 20.1472 0 45V121.805C0 146.658 20.1472 166.805 45 166.805H98.6443C93.9709 179.751 88.4769 196.972 91.2325 199.676C95.7324 204.091 155.5 161.951 155.5 161.951L156.021 161.604C170.283 154.055 180 139.065 180 121.805V45C180 20.1472 159.853 0 135 0H45Z"/>
</mask>
<path fill-rule="evenodd" clip-rule="evenodd" d="M45 0C20.1472 0 0 20.1472 0 45V121.805C0 146.658 20.1472 166.805 45 166.805H98.6443C93.9709 179.751 88.4769 196.972 91.2325 199.676C95.7324 204.091 155.5 161.951 155.5 161.951L156.021 161.604C170.283 154.055 180 139.065 180 121.805V45C180 20.1472 159.853 0 135 0H45Z" fill="#F58236"/>
<path d="M98.6443 166.805L111.812 171.559L118.583 152.805H98.6443V166.805ZM91.2325 199.676L101.038 189.683L101.038 189.683L91.2325 199.676ZM155.5 161.951L147.734 150.303L147.582 150.404L147.433 150.509L155.5 161.951ZM156.021 161.604L149.472 149.23L148.845 149.562L148.255 149.955L156.021 161.604ZM14 45C14 27.8792 27.8792 14 45 14V-14C12.4152 -14 -14 12.4152 -14 45H14ZM14 121.805V45H-14V121.805H14ZM45 152.805C27.8792 152.805 14 138.926 14 121.805H-14C-14 154.39 12.4152 180.805 45 180.805V152.805ZM98.6443 152.805H45V180.805H98.6443V152.805ZM101.038 189.683C103.993 192.583 104.389 195.756 104.436 196.101C104.537 196.828 104.461 197.063 104.513 196.492C104.612 195.41 104.969 193.449 105.71 190.574C107.155 184.963 109.517 177.916 111.812 171.559L85.4762 162.051C83.0978 168.639 80.3762 176.676 78.5953 183.588C77.7227 186.975 76.9312 190.635 76.6289 193.947C76.4804 195.573 76.3908 197.698 76.7 199.935C76.9565 201.79 77.7832 206.093 81.4273 209.669L101.038 189.683ZM155.5 161.951C147.433 150.509 147.433 150.509 147.433 150.509C147.433 150.509 147.432 150.509 147.432 150.51C147.431 150.511 147.429 150.512 147.426 150.514C147.42 150.518 147.41 150.525 147.397 150.534C147.371 150.553 147.331 150.581 147.277 150.619C147.169 150.695 147.006 150.809 146.793 150.959C146.365 151.258 145.733 151.7 144.925 152.263C143.308 153.388 140.987 154.996 138.186 156.912C132.573 160.752 125.078 165.803 117.475 170.698C109.802 175.639 102.296 180.241 96.5786 183.294C93.6412 184.863 91.677 185.749 90.6214 186.122C90.0228 186.334 90.3848 186.138 91.3511 186.044C91.5044 186.03 96.6293 185.357 101.038 189.683L81.4273 209.669C86.3982 214.546 92.5174 214.062 94.0405 213.915C96.3767 213.69 98.4841 213.041 99.9505 212.523C103.025 211.436 106.468 209.755 109.767 207.994C116.521 204.387 124.801 199.283 132.633 194.24C140.534 189.153 148.262 183.945 153.996 180.021C156.868 178.056 159.252 176.406 160.921 175.244C161.756 174.663 162.412 174.204 162.863 173.888C163.088 173.73 163.261 173.608 163.38 173.525C163.439 173.483 163.485 173.451 163.516 173.429C163.532 173.418 163.544 173.41 163.553 173.404C163.557 173.401 163.56 173.398 163.563 173.396C163.564 173.396 163.565 173.395 163.566 173.394C163.567 173.394 163.567 173.393 155.5 161.951ZM148.255 149.955L147.734 150.303L163.266 173.6L163.787 173.253L148.255 149.955ZM166 121.805C166 133.676 159.332 144.011 149.472 149.23L162.57 173.978C181.234 164.099 194 144.454 194 121.805H166ZM166 45V121.805H194V45H166ZM135 14C152.121 14 166 27.8792 166 45H194C194 12.4152 167.585 -14 135 -14V14ZM45 14H135V-14H45V14Z" fill="#2E2F40" mask="url(#path-1-inside-1_2006_80)"/>
<path d="M132.2 74.3943C132.2 82.1132 130.8 89.4395 128 96.3734C125.2 103.307 120.867 109.522 115 115.016L104.8 113.446L107.8 90.4861C103.667 90.4861 100.4 89.4395 98 87.3463C95.7333 85.253 94.6 80.9357 94.6 74.3943C94.6 68.7687 95.1333 64.7131 96.2 62.2274C97.4 59.6108 99.4666 57.9101 102.4 57.1251C105.467 56.3401 109.733 55.9476 115.2 55.9476C119.867 55.9476 123.4 56.3401 125.8 57.1251C128.2 57.9101 129.867 59.6108 130.8 62.2274C131.733 64.7131 132.2 68.7687 132.2 74.3943Z" fill="#2E2F40"/>
<path d="M85.6 74.3943C85.6 82.1132 84.2 89.4395 81.4 96.3734C78.6 103.307 74.2667 109.522 68.4 115.016L58.2 113.446L61.2 90.4861C57.0667 90.4861 53.8 89.4395 51.4 87.3463C49.1333 85.253 48 80.9357 48 74.3943C48 68.7687 48.5333 64.7131 49.6 62.2274C50.8 59.6108 52.8667 57.9101 55.8 57.1251C58.8667 56.3401 63.1333 55.9476 68.6 55.9476C73.2667 55.9476 76.8 56.3401 79.2 57.1251C81.6 57.9101 83.2667 59.6108 84.2 62.2274C85.1333 64.7131 85.6 68.7687 85.6 74.3943Z" fill="#2E2F40"/>
</svg>
