<svg width="299" height="176" viewBox="0 0 299 176" fill="none" xmlns="http://www.w3.org/2000/svg">
<path d="M16.6661 82V21.8438H28.6973V71.7461H41.0704V82H16.6661ZM44.2477 82L50.0583 21.8438H70.4635L76.1715 82H64.7897L63.9352 72.293H56.6891L55.9372 82H44.2477ZM57.5436 62.6885H63.0124L60.3805 32.0977H59.8337L57.5436 62.6885ZM81.263 82V21.8438H93.636L99.1731 50.6572V21.8438H110.794V82H99.0364L93.0208 51.9219V82H81.263ZM129.933 82.5469C121.343 82.5469 117.048 76.3945 117.048 64.0898V38.1475C117.048 26.9137 121.97 21.2969 131.813 21.2969C135.869 21.2969 138.98 22.1172 141.144 23.7578C143.309 25.3757 144.802 27.7454 145.622 30.8672C146.442 33.9889 146.852 37.7943 146.852 42.2832H135.095V36.9512C135.095 35.6523 134.912 34.57 134.548 33.7041C134.206 32.8154 133.477 32.3711 132.36 32.3711C130.97 32.3711 130.047 32.8382 129.592 33.7725C129.159 34.7067 128.942 35.7321 128.942 36.8486V66.0039C128.942 67.6217 129.147 68.9434 129.557 69.9688C129.99 70.9714 130.822 71.4727 132.053 71.4727C133.329 71.4727 134.172 70.9714 134.582 69.9688C135.015 68.9434 135.231 67.599 135.231 65.9355V57.3564H132.018V46.9658H146.716V82H141.896L139.846 76.9414C137.749 80.6784 134.445 82.5469 129.933 82.5469ZM166.812 82.5469C161.799 82.5469 158.108 81.1455 155.738 78.3428C153.368 75.5173 152.183 71.3701 152.183 65.9014V21.8438H163.873V65.4229C163.873 66.4255 163.929 67.3939 164.043 68.3281C164.157 69.2396 164.419 69.9915 164.83 70.584C165.24 71.1764 165.901 71.4727 166.812 71.4727C167.746 71.4727 168.418 71.1878 168.829 70.6182C169.239 70.0257 169.489 69.2624 169.581 68.3281C169.694 67.3939 169.751 66.4255 169.751 65.4229V21.8438H181.441V65.9014C181.441 71.3701 180.256 75.5173 177.886 78.3428C175.516 81.1455 171.825 82.5469 166.812 82.5469ZM185.815 82L191.625 21.8438H212.03L217.738 82H206.357L205.502 72.293H198.256L197.504 82H185.815ZM199.11 62.6885H204.579L201.947 32.0977H201.4L199.11 62.6885ZM235.237 82.5469C226.646 82.5469 222.351 76.3945 222.351 64.0898V38.1475C222.351 26.9137 227.273 21.2969 237.117 21.2969C241.173 21.2969 244.283 22.1172 246.448 23.7578C248.613 25.3757 250.105 27.7454 250.925 30.8672C251.746 33.9889 252.156 37.7943 252.156 42.2832H240.398V36.9512C240.398 35.6523 240.216 34.57 239.851 33.7041C239.509 32.8154 238.78 32.3711 237.664 32.3711C236.274 32.3711 235.351 32.8382 234.895 33.7725C234.462 34.7067 234.246 35.7321 234.246 36.8486V66.0039C234.246 67.6217 234.451 68.9434 234.861 69.9688C235.294 70.9714 236.126 71.4727 237.356 71.4727C238.632 71.4727 239.475 70.9714 239.885 69.9688C240.318 68.9434 240.535 67.599 240.535 65.9355V57.3564H237.322V46.9658H252.019V82H247.2L245.149 76.9414C243.053 80.6784 239.749 82.5469 235.237 82.5469ZM258.204 82V21.8438H282.267V33.4648H270.441V45.1885H281.788V56.502H270.441V70.2764H283.053V82H258.204Z" fill="#2E2F40"/>
<path fill-rule="evenodd" clip-rule="evenodd" d="M277.11 115.047C277.175 112.529 276.567 110.463 275.285 108.85L277.916 109.255L278.981 108.257C281.269 106.115 283.002 103.647 284.129 100.857C284.405 100.173 284.646 99.48 284.853 98.7777C284.885 98.8092 284.918 98.8404 284.952 98.8713L284.983 98.9002L285.015 98.9282C285.617 99.453 286.278 99.8465 286.978 100.13L285.942 108.053L289 108.524L289 176L9.00003 176L9.00002 108.839C9.67352 108.761 10.299 108.652 10.8681 108.506L10.884 108.502L10.8997 108.498C12.2463 108.138 13.3946 107.408 14.2245 106.335C14.893 107.301 15.845 108.05 17.0735 108.451C18.3453 108.867 19.9257 109 21.6073 109C22.5574 109 23.4565 108.968 24.2904 108.894C24.2059 109.01 24.1247 109.127 24.0469 109.246C22.8985 111.004 22.3477 113.02 22.3946 115.293L23.3789 152.277C23.4492 154.316 24 156.18 25.0313 157.867C26.0625 159.555 27.6914 160.902 29.918 161.91C32.168 162.918 35.0977 163.422 38.7071 163.422C42.3399 163.422 45.2695 162.93 47.4961 161.945C49.7227 160.938 51.3516 159.602 52.3828 157.938C53.4375 156.25 53.9883 154.387 54.0352 152.348L54.668 130.023C54.6914 129.063 54.5742 128.359 54.3164 127.914C54.0821 127.445 53.5664 127.141 52.7696 127C51.9727 126.859 50.7539 126.789 49.1133 126.789C46.6758 126.789 45.0469 126.977 44.2266 127.352C43.4297 127.703 43.043 128.594 43.0664 130.023L43.6992 152.594C43.7461 154.563 43.3828 155.91 42.6094 156.637C41.836 157.34 40.5352 157.691 38.7071 157.691C36.8789 157.691 35.5782 157.34 34.8047 156.637C34.0313 155.91 33.668 154.563 33.7149 152.594L34.7696 115.363C34.8164 113.301 35.25 112.023 36.0703 111.531C36.9141 111.016 38.2031 110.758 39.9375 110.758L51.4688 110.758C52.2891 110.758 52.8399 110.57 53.1211 110.195C53.4258 109.82 53.5781 108.93 53.5781 107.523C53.5781 106.375 53.5313 105.52 53.4375 104.957C53.3672 104.395 53.1211 104.031 52.6992 103.867C52.2774 103.68 51.5274 103.586 50.4492 103.586L39.9727 103.586C36.3839 103.586 33.384 103.943 30.9731 104.656C31.4659 103.271 31.6059 101.531 31.6059 99.733C31.6059 98.4723 31.4992 97.2725 31.2188 96.2044C30.9425 95.1518 30.4398 94.0095 29.4861 93.1288L29.4548 93.0999L29.4227 93.0719C28.821 92.5471 28.1592 92.1535 27.4599 91.8701L27.5736 91L267.027 91C267.008 91.4164 267 91.8401 267 92.267C267 93.5278 267.107 94.7275 267.387 95.7956C267.663 96.8483 268.166 97.9906 269.12 98.8713L269.151 98.9002L269.183 98.9282C269.785 99.453 270.447 99.8465 271.146 100.13L270.465 105.341C269.963 105.134 269.436 104.947 268.883 104.781C266.329 103.984 263.446 103.586 260.235 103.586L252.219 103.586L251.34 103.586C249.489 103.586 248.094 103.668 247.157 103.832C246.243 103.973 245.633 104.254 245.329 104.676C245.048 105.074 244.919 105.684 244.942 106.504L246.454 160.609C246.501 161.688 246.782 162.355 247.298 162.613C247.837 162.871 249.184 163 251.341 163L251.973 163L260.516 163C264.43 163 267.512 162.449 269.762 161.348C272.012 160.223 273.618 158.805 274.579 157.094C275.563 155.383 276.079 153.637 276.126 151.855L276.337 145.633C276.43 143.125 275.809 141.027 274.473 139.34C273.137 137.652 271.321 136.352 269.024 135.438C271.907 134.359 273.923 132.813 275.071 130.797C276.243 128.758 276.852 126.754 276.899 124.785L277.11 115.047ZM63.0366 163C61.2085 163 59.9428 162.859 59.2397 162.578C58.5366 162.273 58.2905 161.5 58.5014 160.258L67.8178 106.574C67.9585 105.684 68.228 105.016 68.6264 104.57C69.0249 104.102 69.8217 103.785 71.0171 103.621C72.2358 103.457 74.1225 103.375 76.6772 103.375C79.2319 103.375 81.1069 103.457 82.3022 103.621C83.4975 103.785 84.2944 104.102 84.6928 104.57C85.0913 105.016 85.3608 105.684 85.5014 106.574L94.8178 160.258C95.0288 161.5 94.7827 162.273 94.0796 162.578C93.3999 162.859 92.1342 163 90.2827 163C88.8061 163 87.6928 162.953 86.9428 162.859C86.2163 162.742 85.7124 162.484 85.4311 162.086C85.1499 161.688 84.9389 161.078 84.7983 160.258L83.3569 151.855L69.9624 151.855L68.521 160.258C68.3803 161.078 68.1694 161.688 67.8882 162.086C67.6069 162.484 67.103 162.742 66.3764 162.859C65.6499 162.953 64.5366 163 63.0366 163ZM76.5014 113.992L71.1225 145.176L82.1967 145.176L76.8178 113.992L76.5014 113.992ZM105.296 163C103.14 163 101.792 162.871 101.253 162.613C100.737 162.355 100.456 161.688 100.409 160.609L98.8974 106.504C98.8739 105.684 99.0028 105.074 99.2841 104.676C99.5888 104.254 100.198 103.973 101.112 103.832C102.05 103.668 103.444 103.586 105.296 103.586L106.175 103.586L114.19 103.586C117.401 103.586 120.284 103.984 122.839 104.781C125.417 105.555 127.444 106.785 128.921 108.473C130.421 110.137 131.136 112.328 131.065 115.047L130.854 124.785C130.808 126.754 130.198 128.758 129.026 130.797C127.878 132.813 125.862 134.359 122.979 135.438C125.276 136.352 127.093 137.652 128.429 139.34C129.765 141.027 130.386 143.125 130.292 145.633L130.081 151.855C130.034 153.637 129.518 155.383 128.534 157.094C127.573 158.805 125.968 160.223 123.718 161.348C121.468 162.449 118.386 163 114.472 163L105.929 163L105.296 163ZM113.065 109.668L111.589 109.668L110.956 132.344L113.452 132.344C115.702 132.344 117.237 131.98 118.058 131.254C118.878 130.504 119.253 129.145 119.183 127.176L118.69 113.922C118.62 112.117 118.222 110.957 117.495 110.441C116.792 109.926 115.315 109.668 113.065 109.668ZM113.628 138.496L110.78 138.496L110.253 157.27L113.979 157.27C116.253 157.27 117.788 156.895 118.585 156.145C119.405 155.395 119.792 154.035 119.745 152.066L119.534 142.926C119.511 141.098 119.077 139.902 118.233 139.34C117.413 138.777 115.878 138.496 113.628 138.496ZM154.868 163.422C151.094 163.422 148.035 162.918 145.692 161.91C143.348 160.902 141.637 159.555 140.559 157.867C139.481 156.18 138.907 154.316 138.836 152.277L137.852 115.012C137.758 111.496 139.047 108.648 141.719 106.469C144.414 104.289 148.797 103.199 154.868 103.199C160.938 103.199 165.309 104.289 167.981 106.469C170.676 108.648 171.977 111.496 171.883 115.012L171.461 132.098C171.438 133.527 171.016 134.43 170.196 134.805C169.375 135.156 167.875 135.332 165.696 135.332C163.493 135.332 161.993 135.156 161.196 134.805C160.422 134.43 160.012 133.527 159.965 132.098L159.508 113.922C159.461 111.859 159.051 110.57 158.278 110.055C157.504 109.516 156.368 109.246 154.868 109.246C153.368 109.246 152.231 109.516 151.457 110.055C150.684 110.57 150.274 111.859 150.227 113.922L149.207 152.594C149.16 154.563 149.571 155.91 150.438 156.637C151.328 157.34 152.805 157.691 154.868 157.691C156.953 157.691 158.43 157.34 159.297 156.637C160.188 155.91 160.598 154.563 160.528 152.594L160.387 148.41C160.34 146.98 160.715 146.09 161.512 145.738C162.332 145.363 163.821 145.176 165.977 145.176C168.11 145.176 169.481 145.363 170.09 145.738C170.723 146.09 171.016 146.98 170.969 148.41L170.864 152.348C170.817 154.387 170.243 156.25 169.141 157.938C168.063 159.602 166.364 160.938 164.043 161.945C161.723 162.93 158.664 163.422 154.868 163.422ZM185.103 163C182.947 163 181.599 162.871 181.06 162.613C180.545 162.355 180.263 161.688 180.217 160.609L178.705 106.504C178.681 105.684 178.81 105.074 179.092 104.676C179.396 104.254 180.006 103.973 180.92 103.832C181.857 103.668 183.252 103.586 185.103 103.586C186.955 103.586 188.338 103.668 189.252 103.832C190.189 103.973 190.799 104.254 191.08 104.676C191.385 105.074 191.525 105.684 191.502 106.504L190.096 156.461L199.236 156.461C200.455 156.461 201.17 156.684 201.381 157.129C201.615 157.574 201.732 158.441 201.732 159.73C201.732 160.996 201.615 161.863 201.381 162.332C201.17 162.777 200.455 163 199.236 163L185.103 163ZM220.366 163.422C216.593 163.422 213.534 162.918 211.191 161.91C208.847 160.902 207.136 159.555 206.058 157.867C204.98 156.18 204.417 154.316 204.37 152.277L203.105 106.504C203.081 105.684 203.21 105.074 203.491 104.676C203.796 104.254 204.405 103.973 205.32 103.832C206.257 103.668 207.652 103.586 209.503 103.586C211.355 103.586 212.738 103.668 213.652 103.832C214.589 103.973 215.198 104.254 215.48 104.676C215.784 105.074 215.925 105.684 215.902 106.504L214.706 152.594C214.659 154.563 215.07 155.91 215.937 156.637C216.827 157.34 218.304 157.691 220.366 157.691C222.452 157.691 223.929 157.34 224.796 156.637C225.663 155.91 226.073 154.563 226.027 152.594L224.796 106.504C224.773 105.684 224.902 105.074 225.183 104.676C225.488 104.254 226.097 103.973 227.011 103.832C227.948 103.668 229.343 103.586 231.195 103.586C233.046 103.586 234.429 103.668 235.343 103.832C236.28 103.973 236.89 104.254 237.171 104.676C237.476 105.074 237.616 105.684 237.593 106.504L236.363 152.277C236.316 154.316 235.741 156.18 234.64 157.867C233.562 159.555 231.863 160.902 229.542 161.91C227.222 162.918 224.163 163.422 220.366 163.422ZM259.11 109.668L257.633 109.668L257.001 132.344L259.497 132.344C261.747 132.344 263.282 131.98 264.102 131.254C264.923 130.504 265.298 129.145 265.227 127.176L264.735 113.922C264.665 112.117 264.266 110.957 263.54 110.441C262.837 109.926 261.36 109.668 259.11 109.668ZM259.673 138.496L256.825 138.496L256.298 157.27L260.024 157.27C262.298 157.27 263.833 156.895 264.63 156.145C265.45 155.395 265.837 154.035 265.79 152.066L265.579 142.926C265.555 141.098 265.122 139.902 264.278 139.34C263.458 138.777 261.923 138.496 259.673 138.496Z" fill="#2E2F40"/>
<path d="M5.31617e-05 99.733C5.29324e-05 97.1106 0.475684 94.6216 1.42695 92.2659C2.37821 89.9102 3.8504 87.7989 5.84353 85.9322L9.30885 86.4655L8.28964 94.266C9.69388 94.266 10.8037 94.6216 11.6191 95.3327C12.3891 96.0439 12.7742 97.5106 12.7742 99.733C12.7742 101.644 12.593 103.022 12.2306 103.867C11.8229 104.755 11.1208 105.333 10.1242 105.6C9.08236 105.867 7.63281 106 5.77559 106C4.19014 106 2.98974 105.867 2.17437 105.6C1.359 105.333 0.792771 104.755 0.475683 103.867C0.158595 103.022 5.33288e-05 101.644 5.31617e-05 99.733Z" fill="#2E2F40"/>
<path d="M15.8318 99.733C15.8318 97.1106 16.3074 94.6216 17.2587 92.2659C18.2099 89.9102 19.6821 87.7989 21.6753 85.9322L25.1406 86.4655L24.1214 94.266C25.5256 94.266 26.6354 94.6216 27.4508 95.3327C28.2209 96.0439 28.6059 97.5106 28.6059 99.733C28.6059 101.644 28.4247 103.022 28.0623 103.867C27.6546 104.755 26.9525 105.333 25.9559 105.6C24.9141 105.867 23.4645 106 21.6073 106C20.0219 106 18.8215 105.867 18.0061 105.6C17.1907 105.333 16.6245 104.755 16.3074 103.867C15.9903 103.022 15.8318 101.644 15.8318 99.733Z" fill="#2E2F40"/>
<path d="M298.606 92.1992C298.606 94.8216 298.13 97.3106 297.179 99.6663C296.228 102.022 294.755 104.133 292.762 106L289.297 105.467L290.316 97.6662C288.912 97.6662 287.802 97.3106 286.987 96.5995C286.217 95.8883 285.832 94.4216 285.832 92.1992C285.832 90.288 286.013 88.9101 286.375 88.0656C286.783 87.1767 287.485 86.5989 288.482 86.3322C289.524 86.0655 290.973 85.9322 292.83 85.9322C294.416 85.9322 295.616 86.0655 296.432 86.3322C297.247 86.5989 297.813 87.1767 298.13 88.0656C298.447 88.9101 298.606 90.288 298.606 92.1992Z" fill="#2E2F40"/>
<path d="M282.774 92.1992C282.774 94.8216 282.298 97.3106 281.347 99.6663C280.396 102.022 278.924 104.133 276.931 106L273.465 105.467L274.485 97.6662C273.08 97.6662 271.97 97.3106 271.155 96.5995C270.385 95.8883 270 94.4216 270 92.1992C270 90.288 270.181 88.9101 270.544 88.0656C270.951 87.1767 271.653 86.5989 272.65 86.3322C273.692 86.0655 275.141 85.9322 276.999 85.9322C278.584 85.9322 279.784 86.0655 280.6 86.3322C281.415 86.5989 281.981 87.1767 282.298 88.0656C282.616 88.9101 282.774 90.288 282.774 92.1992Z" fill="#2E2F40"/>
</svg>
