<svg width="265" height="259" viewBox="0 0 265 259" fill="none" xmlns="http://www.w3.org/2000/svg">
<path d="M85.3518 87.5686C82.6428 87.6869 80.15 87.2711 77.8733 86.3214C75.5967 85.3716 73.7534 83.9011 72.3436 81.9099C70.9556 79.895 70.1959 77.385 70.0647 74.3801L69.4073 59.3212L81.2905 58.8024L81.9166 73.1442C81.9624 74.1913 82.204 75.0247 82.6416 75.6442C83.102 76.2628 83.7988 76.5516 84.7322 76.5109C86.5306 76.4324 87.3816 75.289 87.2852 73.0808L85.265 26.8114L97.3873 26.2822L99.3553 71.3564C99.4944 74.5435 98.9891 77.3367 97.8395 79.7362C96.6888 82.1128 95.0372 83.9868 92.8847 85.358C90.7311 86.7065 88.2202 87.4434 85.3518 87.5686ZM118.577 86.118C113.569 86.3366 109.82 85.0976 107.33 82.4009C104.839 79.6814 103.475 75.5899 103.236 70.1264L101.612 32.9401L113.291 32.4303L114.908 69.4799C114.952 70.4816 115.051 71.4466 115.206 72.375C115.359 73.2806 115.654 74.0204 116.09 74.5944C116.525 75.1684 117.198 75.4355 118.109 75.3958C119.042 75.355 119.701 75.0411 120.086 74.4541C120.47 73.8443 120.687 73.0708 120.738 72.1335C120.811 71.1951 120.825 70.2251 120.782 69.2235L119.164 32.1738L130.842 31.6639L132.466 68.8502C132.704 74.3137 131.702 78.5086 129.457 81.4348C127.212 84.3382 123.585 85.8993 118.577 86.118ZM152.075 84.6554C146.589 84.8949 142.568 83.702 140.013 81.0766C137.481 78.4501 136.085 74.1548 135.824 68.1904L135.739 66.244L147.622 65.7252L147.779 69.3106C147.84 70.6993 148.092 71.783 148.537 72.5619C149.003 73.317 149.76 73.6717 150.807 73.626C151.9 73.5783 152.638 73.2609 153.023 72.6739C153.43 72.0632 153.609 71.2 153.56 70.0846C153.496 68.6049 152.94 67.3747 151.894 66.394C150.87 65.4123 149.182 64.0947 146.829 62.4412L141.463 58.6385C139.18 57.0275 137.538 55.2061 136.537 53.1743C135.536 51.1425 134.971 48.6468 134.842 45.6874C134.64 41.0662 135.666 37.4063 137.92 34.7077C140.197 32.0082 143.59 30.56 148.097 30.3632C153.606 30.1227 157.573 31.3864 159.997 34.1544C162.445 36.9213 163.789 41.0821 164.032 46.6367L151.841 47.169L151.713 44.2323C151.628 42.2746 150.674 41.3354 148.853 41.4149C147.943 41.4547 147.283 41.7572 146.874 42.3224C146.465 42.8649 146.278 43.5573 146.315 44.3996C146.352 45.2419 146.58 46.0302 147 46.7645C147.441 47.4751 148.416 48.3905 149.925 49.5107L157.103 54.8423C159.719 56.7808 161.725 58.8486 163.121 61.0456C164.517 63.2427 165.294 66.1396 165.451 69.7365C165.56 72.2406 165.207 74.6052 164.392 76.8304C163.6 79.0546 162.209 80.883 160.218 82.3156C158.227 83.7254 155.513 84.5053 152.075 84.6554ZM175.237 83.0967L173.416 41.3689L166.279 41.6805L165.775 30.1388L192.068 28.9908L192.572 40.5325L185.435 40.8441L187.257 82.5719L175.237 83.0967Z" fill="#2E2F40"/>
<path d="M12.28 171.336V89.9761H56.488V171.336H12.28ZM15.808 156H51.952L53.392 142.32L45.184 141.6L43.744 147.792H30.496V136.56H50.224V128.424H30.496V117.408H43.312L44.752 123.6L52.96 122.88L51.52 109.2H15.808V117.408H20.848V147.792H15.808V156ZM55.03 171.336V89.9761H99.166V171.336H55.03ZM79.654 156H97.582V149.016H93.262V134.112C93.262 130.272 92.134 127.44 89.878 125.616C87.622 123.792 84.958 122.88 81.886 122.88C77.086 122.88 73.606 124.752 71.446 128.496V123.528H57.478V130.584H62.158V149.016H57.838V156H75.766V149.016H71.446V137.352C71.494 135.144 72.118 133.368 73.318 132.024C74.518 130.632 76.222 129.936 78.43 129.936C80.254 129.936 81.622 130.536 82.534 131.736C83.494 132.936 83.974 134.928 83.974 137.712V149.016H79.654V156ZM97.7097 171.336V89.9761H140.046V171.336H117.006C122.814 171.144 127.11 169.416 129.894 166.152C132.678 162.888 134.07 158.736 134.07 153.696V130.584H138.39V123.528H124.782V128.568C123.87 126.888 122.574 125.52 120.894 124.464C119.214 123.408 117.102 122.88 114.558 122.88C109.998 122.88 106.422 124.584 103.83 127.992C101.238 131.4 99.9417 135.528 99.9417 140.376C99.9417 145.512 101.358 149.4 104.19 152.04C107.022 154.68 110.334 156 114.126 156C117.006 156 119.286 155.424 120.966 154.272C122.646 153.12 123.918 151.728 124.782 150.096V153.696C124.782 156.96 123.966 159.432 122.334 161.112C120.75 162.792 118.71 163.632 116.214 163.632C112.182 163.632 109.086 161.616 106.926 157.584L99.7977 161.616C101.094 165.168 103.158 167.64 105.99 169.032C108.87 170.472 111.918 171.24 115.134 171.336H97.7097ZM124.782 138.792V139.584C124.782 141.984 124.086 144.048 122.694 145.776C121.302 147.456 119.334 148.296 116.79 148.296C114.822 148.296 113.19 147.672 111.894 146.424C110.598 145.128 109.95 142.92 109.95 139.8C109.95 136.488 110.67 134.136 112.11 132.744C113.55 131.304 115.302 130.584 117.366 130.584C119.478 130.584 121.23 131.28 122.622 132.672C124.062 134.064 124.782 136.104 124.782 138.792ZM138.632 171.336V89.9761H160.52V171.336H138.632ZM140.648 156H158.576V149.016H154.256V106.464H140.288V113.52H144.968V149.016H140.648V156ZM158.952 171.336V89.9761H181.92V171.336H158.952ZM165.936 108.12V117.768H175.224V108.12H165.936ZM161.976 156H179.904V149.016H175.584V123.528H161.616V130.584H166.296V149.016H161.976V156ZM180.323 171.336V89.9761H214.812V171.336H180.323ZM212.364 146.064C212.364 142.944 211.404 140.736 209.484 139.44C207.612 138.096 205.404 137.208 202.86 136.776C200.364 136.344 198.156 135.912 196.236 135.48C194.364 135 193.428 134.064 193.428 132.672C193.428 131.616 193.836 130.848 194.652 130.368C195.516 129.84 196.548 129.576 197.748 129.576C199.572 129.576 201.276 129.84 202.86 130.368L203.436 134.904L210.636 134.112L209.844 125.832C206.052 123.864 201.996 122.88 197.676 122.88C194.364 122.88 191.148 123.576 188.028 124.968C184.956 126.312 183.42 128.976 183.42 132.96C183.42 136.176 184.404 138.456 186.372 139.8C188.34 141.144 190.62 142.032 193.212 142.464C195.804 142.896 198.084 143.328 200.052 143.76C202.02 144.192 203.004 145.104 203.004 146.496C203.004 147.648 202.356 148.512 201.06 149.088C199.764 149.664 198.228 149.952 196.452 149.952C195.972 149.952 195.252 149.928 194.292 149.88C193.332 149.784 192.42 149.592 191.556 149.304V145.272L184.356 144.48L183.06 153.552C185.22 154.656 187.476 155.472 189.828 156C192.228 156.48 194.604 156.72 196.956 156.72C201.516 156.72 205.212 155.856 208.044 154.128C210.924 152.352 212.364 149.664 212.364 146.064ZM213.233 171.336V89.9761H256.433V171.336H213.233ZM236.921 156H254.849V149.016H250.529V134.112C250.529 130.272 249.401 127.44 247.145 125.616C244.889 123.792 242.225 122.88 239.153 122.88C234.353 122.88 230.873 124.752 228.713 128.496V106.464H215.105V113.52H219.425V149.016H215.105V156H233.033V149.016H228.713V136.992C228.809 134.88 229.433 133.176 230.585 131.88C231.785 130.584 233.441 129.936 235.553 129.936C237.377 129.936 238.769 130.536 239.729 131.736C240.737 132.936 241.241 134.928 241.241 137.712V149.016H236.921V156Z" fill="#2E2F40"/>
<path d="M9.07171 81.4496L8.35063 81.3386L7.81814 81.8374C5.67801 83.8418 4.07497 86.1315 3.03607 88.7042C2.0104 91.2442 1.50005 93.9244 1.50005 96.733C1.50005 98.6617 1.65184 100.268 2.06704 101.382C2.52335 102.652 3.40723 103.6 4.70807 104.026C5.75165 104.367 7.14206 104.5 8.77559 104.5C10.6816 104.5 12.276 104.365 13.4962 104.053L13.5041 104.051L13.512 104.049C14.9131 103.674 15.9886 102.812 16.594 101.492L16.6017 101.475L16.609 101.458C17.0993 100.315 17.2742 98.6752 17.2742 96.733C17.2742 95.547 17.1727 94.486 16.9362 93.5853C16.7018 92.6923 16.3061 91.8489 15.6367 91.2307L15.6211 91.2163L15.605 91.2023C14.8535 90.5468 13.9615 90.1383 12.9767 89.9316L13.7962 83.6599L13.9862 82.206L12.537 81.983L9.07171 81.4496Z" fill="#2E2F40" stroke="white" stroke-width="3"/>
<path d="M24.9034 81.4496L24.1824 81.3386L23.6499 81.8374C21.5097 83.8418 19.9067 86.1315 18.8678 88.7042C17.8421 91.2442 17.3318 93.9244 17.3318 96.733C17.3318 98.6617 17.4836 100.268 17.8988 101.382C18.3551 102.652 19.2389 103.6 20.5398 104.026C21.5834 104.367 22.9738 104.5 24.6073 104.5C26.5133 104.5 28.1077 104.365 29.3279 104.053L29.3358 104.051L29.3437 104.049C30.7448 103.674 31.8204 102.812 32.4258 101.492L32.4335 101.475L32.4408 101.458C32.9311 100.315 33.1059 98.6751 33.1059 96.733C33.1059 95.547 33.0044 94.486 32.768 93.5853C32.5335 92.6923 32.1378 91.8489 31.4685 91.2307L31.4528 91.2163L31.4367 91.2023C30.6852 90.5468 29.7932 90.1383 28.8085 89.9316L29.6279 83.6599L29.8179 82.206L28.3688 81.983L24.9034 81.4496Z" fill="#2E2F40" stroke="white" stroke-width="3"/>
<path d="M255.534 104.55L256.255 104.661L256.788 104.163C258.928 102.158 260.531 99.8685 261.57 97.2958C262.595 94.7558 263.106 92.0756 263.106 89.267C263.106 87.3383 262.954 85.732 262.539 84.6179C262.083 83.3479 261.199 82.3998 259.898 81.9743C258.854 81.633 257.464 81.5 255.83 81.5C253.924 81.5 252.33 81.6345 251.11 81.9469L251.102 81.9489L251.094 81.951C249.693 82.3259 248.617 83.1881 248.012 84.5082L248.004 84.525L247.997 84.5419C247.507 85.6846 247.332 87.3248 247.332 89.267C247.332 90.453 247.433 91.514 247.67 92.4147C247.904 93.3077 248.3 94.1511 248.969 94.7693L248.985 94.7837L249.001 94.7977C249.752 95.4532 250.644 95.8617 251.629 96.0685L250.81 102.34L250.62 103.794L252.069 104.017L255.534 104.55Z" fill="#2E2F40" stroke="white" stroke-width="3"/>
<path d="M239.702 104.55L240.424 104.661L240.956 104.163C243.096 102.158 244.699 99.8685 245.738 97.2958C246.764 94.7558 247.274 92.0756 247.274 89.267C247.274 87.3383 247.122 85.7321 246.707 84.6179C246.251 83.3479 245.367 82.3998 244.066 81.9743C243.023 81.633 241.632 81.5 239.999 81.5C238.093 81.5 236.498 81.6345 235.278 81.9469L235.27 81.9489L235.262 81.951C233.861 82.3259 232.786 83.1881 232.18 84.5082L232.172 84.525L232.165 84.5419C231.675 85.6846 231.5 87.3248 231.5 89.267C231.5 90.453 231.601 91.514 231.838 92.4147C232.072 93.3077 232.468 94.1511 233.137 94.7693L233.153 94.7837L233.169 94.7977C233.921 95.4532 234.813 95.8617 235.797 96.0685L234.978 102.34L234.788 103.794L236.237 104.017L239.702 104.55Z" fill="#2E2F40" stroke="white" stroke-width="3"/>
<path d="M38.0459 235.24L35.422 175.141L51.3004 174.447C54.624 174.302 57.2857 174.927 59.2853 176.322C61.3077 177.717 62.7996 179.761 63.7612 182.456C64.7228 185.151 65.286 188.388 65.451 192.167C65.6101 195.81 65.3959 199.001 64.8084 201.741C64.22 204.458 63.0475 206.596 61.2909 208.155C59.5571 209.713 57.0284 210.565 53.7047 210.71L48.8217 210.923L49.8608 234.724L38.0459 235.24ZM48.3506 200.133L49.0335 200.103C51.2645 200.005 52.603 199.32 53.0492 198.046C53.4953 196.772 53.6652 194.917 53.5589 192.481C53.4595 190.205 53.1325 188.463 52.578 187.255C52.0453 186.024 50.8684 185.448 49.0472 185.528L47.7154 185.586L48.3506 200.133ZM71.1004 233.796L68.7746 180.527L80.7944 180.002L82.6729 223.027L95.0342 222.488L95.4814 232.732L71.1004 233.796ZM98.8962 232.583L96.5704 179.313L120.61 178.264L121.117 189.874L109.302 190.39L109.687 199.199L121.023 198.705L121.517 210.007L110.18 210.502L110.609 220.337L123.21 219.786L123.721 231.499L98.8962 232.583ZM126.077 231.396L129.557 177.873L149.942 176.983L157.971 230.004L146.6 230.5L145.391 220.837L138.015 221.159L137.756 230.886L126.077 231.396ZM139.74 187.008L138.586 211.52L143.845 211.29L140.286 186.984L139.74 187.008ZM175.956 229.766C170.47 230.005 166.449 228.812 163.894 226.187C161.362 223.56 159.965 219.265 159.705 213.301L159.62 211.354L171.503 210.835L171.66 214.421C171.72 215.81 171.973 216.893 172.417 217.672C172.884 218.427 173.64 218.782 174.688 218.736C175.78 218.689 176.519 218.371 176.904 217.784C177.311 217.173 177.49 216.31 177.441 215.195C177.376 213.715 176.821 212.485 175.775 211.504C174.751 210.523 173.063 209.205 170.71 207.552L165.343 203.749C163.061 202.138 161.419 200.316 160.418 198.285C159.417 196.253 158.851 193.757 158.722 190.798C158.52 186.176 159.547 182.517 161.801 179.818C164.078 177.118 167.47 175.67 171.978 175.473C177.487 175.233 181.453 176.497 183.878 179.265C186.325 182.032 187.67 186.192 187.913 191.747L175.722 192.279L175.594 189.343C175.508 187.385 174.555 186.446 172.734 186.525C171.823 186.565 171.164 186.867 170.755 187.433C170.345 187.975 170.159 188.668 170.196 189.51C170.232 190.352 170.461 191.14 170.88 191.875C171.322 192.585 172.297 193.501 173.806 194.621L180.984 199.953C183.6 201.891 185.606 203.959 187.002 206.156C188.398 208.353 189.175 211.25 189.332 214.847C189.441 217.351 189.088 219.716 188.273 221.941C187.48 224.165 186.089 225.993 184.099 227.426C182.108 228.836 179.393 229.616 175.956 229.766ZM193.962 228.432L191.636 175.163L215.676 174.113L216.183 185.723L204.368 186.239L204.752 195.049L216.089 194.554L216.583 205.857L205.246 206.352L205.675 216.186L218.275 215.636L218.787 227.348L193.962 228.432ZM223.673 210.747L219.671 173.939L231.896 173.405L231.117 210.422L223.673 210.747ZM221.995 227.174L221.551 216.998L233.776 216.464L234.22 226.64L221.995 227.174Z" fill="#2E2F40"/>
</svg>
